<mxfile host="app.diagrams.net" agent="Mozilla/5.0 (Macintosh; Intel Mac OS X 10_15_7) AppleWebKit/537.36 (KHTML, like Gecko) Chrome/138.0.0.0 Safari/537.36" version="27.2.0">
  <diagram id="Ht1M8jgEwFfnCIfOTk4-" name="Page-1">
    <mxGraphModel dx="1234" dy="824" grid="1" gridSize="10" guides="1" tooltips="1" connect="1" arrows="1" fold="1" page="1" pageScale="1" pageWidth="1169" pageHeight="827" math="0" shadow="0">
      <root>
        <mxCell id="0" />
        <mxCell id="1" parent="0" />
        <mxCell id="-SwOJ4ZzwDQcredPTqo0-1" value="AWS Cloud" style="points=[[0,0],[0.25,0],[0.5,0],[0.75,0],[1,0],[1,0.25],[1,0.5],[1,0.75],[1,1],[0.75,1],[0.5,1],[0.25,1],[0,1],[0,0.75],[0,0.5],[0,0.25]];outlineConnect=0;html=1;whiteSpace=wrap;fontSize=12;fontStyle=0;container=1;pointerEvents=0;collapsible=0;recursiveResize=0;shape=mxgraph.aws4.group;grIcon=mxgraph.aws4.group_aws_cloud_alt;fillColor=none;verticalAlign=top;align=left;spacingLeft=30;dashed=0;" vertex="1" parent="1">
          <mxGeometry x="160" y="67" width="740" height="693" as="geometry" />
        </mxCell>
        <mxCell id="-SwOJ4ZzwDQcredPTqo0-58" value="Region A" style="points=[[0,0],[0.25,0],[0.5,0],[0.75,0],[1,0],[1,0.25],[1,0.5],[1,0.75],[1,1],[0.75,1],[0.5,1],[0.25,1],[0,1],[0,0.75],[0,0.5],[0,0.25]];outlineConnect=0;gradientColor=none;html=1;whiteSpace=wrap;fontSize=12;fontStyle=0;container=1;pointerEvents=0;collapsible=0;recursiveResize=0;shape=mxgraph.aws4.group;grIcon=mxgraph.aws4.group_region;strokeColor=#00A4A6;fillColor=none;verticalAlign=top;align=left;spacingLeft=30;fontColor=#147EBA;dashed=1;" vertex="1" parent="-SwOJ4ZzwDQcredPTqo0-1">
          <mxGeometry x="64" y="50" width="636" height="590" as="geometry" />
        </mxCell>
        <mxCell id="-SwOJ4ZzwDQcredPTqo0-140" value="Availability Zone" style="fillColor=none;strokeColor=#147EBA;dashed=1;verticalAlign=top;fontStyle=0;fontColor=#147EBA;whiteSpace=wrap;html=1;" vertex="1" parent="-SwOJ4ZzwDQcredPTqo0-58">
          <mxGeometry x="26" y="113" width="594" height="400" as="geometry" />
        </mxCell>
        <mxCell id="-SwOJ4ZzwDQcredPTqo0-141" value="Private subnet" style="points=[[0,0],[0.25,0],[0.5,0],[0.75,0],[1,0],[1,0.25],[1,0.5],[1,0.75],[1,1],[0.75,1],[0.5,1],[0.25,1],[0,1],[0,0.75],[0,0.5],[0,0.25]];outlineConnect=0;gradientColor=none;html=1;whiteSpace=wrap;fontSize=12;fontStyle=0;container=1;pointerEvents=0;collapsible=0;recursiveResize=0;shape=mxgraph.aws4.group;grIcon=mxgraph.aws4.group_security_group;grStroke=0;strokeColor=#00A4A6;fillColor=#E6F6F7;verticalAlign=top;align=left;spacingLeft=30;fontColor=#147EBA;dashed=0;" vertex="1" parent="-SwOJ4ZzwDQcredPTqo0-58">
          <mxGeometry x="141" y="193" width="419" height="257" as="geometry" />
        </mxCell>
        <mxCell id="-SwOJ4ZzwDQcredPTqo0-142" value="EC2&lt;br&gt;&lt;p style=&quot;margin: 0px; font-variant-numeric: normal; font-variant-east-asian: normal; font-variant-alternates: normal; font-size-adjust: none; font-kerning: auto; font-optical-sizing: auto; font-feature-settings: normal; font-variation-settings: normal; font-variant-position: normal; font-variant-emoji: normal; font-stretch: normal; font-size: 10px; line-height: normal; color: rgb(52, 57, 57); text-align: start; text-wrap-mode: wrap;&quot; class=&quot;p1&quot;&gt;&lt;b&gt;IPv4&lt;/b&gt; Privada: 10.0.1.5&lt;/p&gt;&lt;p style=&quot;margin: 0px; font-variant-numeric: normal; font-variant-east-asian: normal; font-variant-alternates: normal; font-size-adjust: none; font-kerning: auto; font-optical-sizing: auto; font-feature-settings: normal; font-variation-settings: normal; font-variant-position: normal; font-variant-emoji: normal; font-stretch: normal; font-size: 10px; line-height: normal; color: rgb(1, 21, 77); text-align: start; text-wrap-mode: wrap;&quot; class=&quot;p2&quot;&gt;&lt;b&gt;IPv6&lt;/b&gt;: 2001:db8:1234:1a02::456&lt;/p&gt;" style="sketch=0;points=[[0,0,0],[0.25,0,0],[0.5,0,0],[0.75,0,0],[1,0,0],[0,1,0],[0.25,1,0],[0.5,1,0],[0.75,1,0],[1,1,0],[0,0.25,0],[0,0.5,0],[0,0.75,0],[1,0.25,0],[1,0.5,0],[1,0.75,0]];outlineConnect=0;fontColor=#232F3E;fillColor=#ED7100;strokeColor=#ffffff;dashed=0;verticalLabelPosition=bottom;verticalAlign=top;align=center;html=1;fontSize=12;fontStyle=0;aspect=fixed;shape=mxgraph.aws4.resourceIcon;resIcon=mxgraph.aws4.ec2;" vertex="1" parent="-SwOJ4ZzwDQcredPTqo0-141">
          <mxGeometry x="160" y="90" width="78" height="78" as="geometry" />
        </mxCell>
        <mxCell id="-SwOJ4ZzwDQcredPTqo0-138" value="VPC" style="points=[[0,0],[0.25,0],[0.5,0],[0.75,0],[1,0],[1,0.25],[1,0.5],[1,0.75],[1,1],[0.75,1],[0.5,1],[0.25,1],[0,1],[0,0.75],[0,0.5],[0,0.25]];outlineConnect=0;gradientColor=none;html=1;whiteSpace=wrap;fontSize=12;fontStyle=0;container=1;pointerEvents=0;collapsible=0;recursiveResize=0;shape=mxgraph.aws4.group;grIcon=mxgraph.aws4.group_vpc2;strokeColor=#8C4FFF;fillColor=none;verticalAlign=top;align=left;spacingLeft=30;fontColor=#AAB7B8;dashed=0;" vertex="1" parent="-SwOJ4ZzwDQcredPTqo0-58">
          <mxGeometry x="71" y="60" width="540" height="480" as="geometry" />
        </mxCell>
        <mxCell id="-SwOJ4ZzwDQcredPTqo0-145" value="&lt;div&gt;(&lt;b&gt;IPv4&lt;/b&gt;: 10.0.0.0/16)&lt;/div&gt;&lt;div&gt;(&lt;b&gt;IPv6&lt;/b&gt;: 2001:db8:1234:1a00::/56)&lt;/div&gt;" style="text;html=1;align=left;verticalAlign=middle;whiteSpace=wrap;rounded=0;fontColor=#9933FF;" vertex="1" parent="-SwOJ4ZzwDQcredPTqo0-138">
          <mxGeometry x="71" y="3" width="204" height="30" as="geometry" />
        </mxCell>
        <mxCell id="-SwOJ4ZzwDQcredPTqo0-144" style="edgeStyle=orthogonalEdgeStyle;rounded=0;orthogonalLoop=1;jettySize=auto;html=1;" edge="1" parent="-SwOJ4ZzwDQcredPTqo0-58" source="-SwOJ4ZzwDQcredPTqo0-139" target="-SwOJ4ZzwDQcredPTqo0-142">
          <mxGeometry relative="1" as="geometry" />
        </mxCell>
        <mxCell id="-SwOJ4ZzwDQcredPTqo0-139" value="Egress-Only &lt;br&gt;Internet Gateway" style="sketch=0;outlineConnect=0;fontColor=#232F3E;gradientColor=none;fillColor=#8C4FFF;strokeColor=none;dashed=0;verticalLabelPosition=bottom;verticalAlign=top;align=center;html=1;fontSize=12;fontStyle=0;aspect=fixed;pointerEvents=1;shape=mxgraph.aws4.internet_gateway;" vertex="1" parent="-SwOJ4ZzwDQcredPTqo0-58">
          <mxGeometry x="36" y="283" width="78" height="78" as="geometry" />
        </mxCell>
        <mxCell id="-SwOJ4ZzwDQcredPTqo0-146" value="&lt;p style=&quot;margin: 0px; font-variant-numeric: normal; font-variant-east-asian: normal; font-variant-alternates: normal; font-size-adjust: none; font-kerning: auto; font-optical-sizing: auto; font-feature-settings: normal; font-variation-settings: normal; font-variant-position: normal; font-variant-emoji: normal; font-stretch: normal; line-height: normal; color: rgb(75, 137, 203);&quot; class=&quot;p1&quot;&gt;(&lt;b&gt;IPv4&lt;/b&gt;: 10.0.1.0/24)&lt;/p&gt;&lt;p style=&quot;margin: 0px; font-variant-numeric: normal; font-variant-east-asian: normal; font-variant-alternates: normal; font-size-adjust: none; font-kerning: auto; font-optical-sizing: auto; font-feature-settings: normal; font-variation-settings: normal; font-variant-position: normal; font-variant-emoji: normal; font-stretch: normal; line-height: normal; color: rgb(75, 137, 203);&quot; class=&quot;p1&quot;&gt;(&lt;b&gt;IPv6&lt;/b&gt;: 2001:db8:1234:1a02::/64)&lt;/p&gt;" style="text;html=1;align=left;verticalAlign=middle;whiteSpace=wrap;rounded=0;fontColor=#9933FF;" vertex="1" parent="-SwOJ4ZzwDQcredPTqo0-58">
          <mxGeometry x="259" y="195" width="204" height="30" as="geometry" />
        </mxCell>
        <mxCell id="-SwOJ4ZzwDQcredPTqo0-149" value="AWS Network Firewall" style="sketch=0;points=[[0,0,0],[0.25,0,0],[0.5,0,0],[0.75,0,0],[1,0,0],[0,1,0],[0.25,1,0],[0.5,1,0],[0.75,1,0],[1,1,0],[0,0.25,0],[0,0.5,0],[0,0.75,0],[1,0.25,0],[1,0.5,0],[1,0.75,0]];outlineConnect=0;fontColor=#232F3E;fillColor=#DD344C;strokeColor=#ffffff;dashed=0;verticalLabelPosition=bottom;verticalAlign=top;align=center;html=1;fontSize=12;fontStyle=0;aspect=fixed;shape=mxgraph.aws4.resourceIcon;resIcon=mxgraph.aws4.network_firewall;" vertex="1" parent="-SwOJ4ZzwDQcredPTqo0-1">
          <mxGeometry x="335" y="598" width="70" height="70" as="geometry" />
        </mxCell>
        <mxCell id="-SwOJ4ZzwDQcredPTqo0-143" style="edgeStyle=orthogonalEdgeStyle;rounded=0;orthogonalLoop=1;jettySize=auto;html=1;" edge="1" parent="1" source="-SwOJ4ZzwDQcredPTqo0-137" target="-SwOJ4ZzwDQcredPTqo0-139">
          <mxGeometry relative="1" as="geometry" />
        </mxCell>
        <mxCell id="-SwOJ4ZzwDQcredPTqo0-137" value="Internet" style="outlineConnect=0;dashed=0;verticalLabelPosition=bottom;verticalAlign=top;align=center;html=1;shape=mxgraph.aws3.internet_2;fillColor=#D2D3D3;gradientColor=none;" vertex="1" parent="1">
          <mxGeometry x="40" y="412" width="79.5" height="54" as="geometry" />
        </mxCell>
      </root>
    </mxGraphModel>
  </diagram>
</mxfile>
